<svg xmlns="http://www.w3.org/2000/svg" version="1.1" xmlns:xlink="http://www.w3.org/1999/xlink" xmlns:svgjs="http://svgjs.dev/svgjs" viewBox="0 0 7.200929498300745 8.823884833265584"><g transform="matrix(1,0,0,1,0.6635812042284974,6.000412719946178)"><rect width="7.200929498300745" height="8.823884833265584" x="-0.6635812042284976" y="-6.000412719946178" fill="#ffffff"></rect><g><path d=" M 0.7252500000000001 0.5362499999999999 Q 0.636 0.6224999999999999 0.453 0.6224999999999999 L 0.252 0.6224999999999999 L 0.252 1.059 L 0.1155 1.059 L 0.1155 0.013499999999999845 L 0.453 0.013499999999999845 Q 0.63 0.013499999999999845 0.7222500000000001 0.09899999999999998 Q 0.8145 0.1844999999999999 0.8145 0.3194999999999999 Q 0.8145 0.44999999999999996 0.7252500000000001 0.5362499999999999 Z M 0.621 0.4604999999999999 Q 0.675 0.4109999999999999 0.675 0.3194999999999999 Q 0.675 0.1259999999999999 0.453 0.1259999999999999 L 0.252 0.1259999999999999 L 0.252 0.5099999999999999 L 0.453 0.5099999999999999 Q 0.5670000000000001 0.5099999999999999 0.621 0.4604999999999999 Z M 1.13246923828125 0.013499999999999845 L 1.13246923828125 0.6749999999999999 Q 1.13246923828125 0.8145 1.2007192382812502 0.8819999999999999 Q 1.26896923828125 0.9494999999999999 1.39046923828125 0.9494999999999999 Q 1.51046923828125 0.9494999999999999 1.57871923828125 0.8819999999999999 Q 1.6469692382812502 0.8145 1.6469692382812502 0.6749999999999999 L 1.6469692382812502 0.013499999999999845 L 1.78346923828125 0.013499999999999845 L 1.78346923828125 0.6735 Q 1.78346923828125 0.8039999999999999 1.73096923828125 0.8932499999999999 Q 1.67846923828125 0.9824999999999999 1.58921923828125 1.026 Q 1.49996923828125 1.0695 1.3889692382812502 1.0695 Q 1.27796923828125 1.0695 1.1887192382812501 1.026 Q 1.09946923828125 0.9824999999999999 1.0477192382812501 0.8932499999999999 Q 0.9959692382812501 0.8039999999999999 0.9959692382812501 0.6735 L 0.9959692382812501 0.013499999999999845 L 1.13246923828125 0.013499999999999845 Z M 2.5964509277343755 0.4514999999999999 L 2.5964509277343755 0.567 L 1.9979509277343752 0.567 L 1.9979509277343752 0.4514999999999999 L 2.5964509277343755 0.4514999999999999 Z M 3.4956474609375006 0.567 Q 3.5428974609375006 0.6044999999999999 3.5706474609375003 0.6599999999999999 Q 3.5983974609375005 0.7154999999999999 3.5983974609375005 0.7785 Q 3.5983974609375005 0.8579999999999999 3.5578974609375003 0.92175 Q 3.5173974609375005 0.9854999999999999 3.4401474609375002 1.0222499999999999 Q 3.3628974609375004 1.059 3.2578974609375004 1.059 L 2.8678974609375003 1.059 L 2.8678974609375003 0.013499999999999845 L 3.2428974609375003 0.013499999999999845 Q 3.3493974609375003 0.013499999999999845 3.4243974609375005 0.04874999999999985 Q 3.4993974609375003 0.08399999999999996 3.5368974609375003 0.1439999999999999 Q 3.5743974609375004 0.20399999999999996 3.5743974609375004 0.2789999999999999 Q 3.5743974609375004 0.3719999999999999 3.5241474609375003 0.43274999999999997 Q 3.4738974609375006 0.49349999999999994 3.3913974609375 0.5205 Q 3.4483974609375005 0.5295 3.4956474609375006 0.567 Z M 3.0043974609375006 0.46499999999999997 L 3.2338974609375004 0.46499999999999997 Q 3.3298974609375005 0.46499999999999997 3.3823974609375003 0.41999999999999993 Q 3.4348974609375005 0.3749999999999999 3.4348974609375005 0.2954999999999999 Q 3.4348974609375005 0.21599999999999997 3.3823974609375003 0.17099999999999993 Q 3.3298974609375005 0.1259999999999999 3.2308974609375003 0.1259999999999999 L 3.0043974609375006 0.1259999999999999 L 3.0043974609375006 0.46499999999999997 Z M 3.4048974609375002 0.8985 Q 3.4618974609375 0.8504999999999999 3.4618974609375 0.7649999999999999 Q 3.4618974609375 0.6779999999999999 3.4018974609375006 0.6277499999999999 Q 3.3418974609375005 0.5774999999999999 3.2413974609375003 0.5774999999999999 L 3.0043974609375006 0.5774999999999999 L 3.0043974609375006 0.9464999999999999 L 3.2458974609375004 0.9464999999999999 Q 3.3478974609375003 0.9464999999999999 3.4048974609375002 0.8985 Z M 4.862861572265626 0.020999999999999908 L 4.862861572265626 1.059 L 4.726361572265626 1.059 L 4.726361572265626 0.2849999999999999 L 4.381361572265625 1.059 L 4.285361572265625 1.059 L 3.9388615722656253 0.2835 L 3.9388615722656253 1.059 L 3.8023615722656254 1.059 L 3.8023615722656254 0.020999999999999908 L 3.9493615722656257 0.020999999999999908 L 4.333361572265625 0.879 L 4.7173615722656255 0.020999999999999908 L 4.862861572265626 0.020999999999999908 Z M 5.255054443359376 1.0327499999999998 Q 5.173304443359376 0.996 5.126804443359376 0.93075 Q 5.080304443359376 0.8654999999999999 5.078804443359376 0.7799999999999999 L 5.224304443359376 0.7799999999999999 Q 5.231804443359376 0.8534999999999999 5.2850544433593765 0.9037499999999999 Q 5.338304443359376 0.954 5.440304443359376 0.954 Q 5.537804443359376 0.954 5.594054443359376 0.9052499999999999 Q 5.650304443359376 0.8564999999999999 5.650304443359376 0.7799999999999999 Q 5.650304443359376 0.72 5.617304443359376 0.6824999999999999 Q 5.584304443359376 0.6449999999999999 5.534804443359376 0.6255 Q 5.485304443359376 0.6059999999999999 5.401304443359376 0.5834999999999999 Q 5.297804443359376 0.5564999999999999 5.235554443359376 0.5295 Q 5.173304443359376 0.5025 5.129054443359376 0.44475 Q 5.084804443359376 0.3869999999999999 5.084804443359376 0.2895 Q 5.084804443359376 0.20399999999999996 5.128304443359376 0.1379999999999999 Q 5.171804443359376 0.07199999999999995 5.250554443359376 0.03599999999999981 Q 5.329304443359376 0 5.431304443359376 0 Q 5.578304443359376 0 5.672054443359376 0.0734999999999999 Q 5.765804443359376 0.1469999999999999 5.777804443359376 0.26849999999999996 L 5.627804443359376 0.26849999999999996 Q 5.620304443359376 0.2084999999999999 5.564804443359376 0.16274999999999995 Q 5.509304443359376 0.11699999999999988 5.417804443359376 0.11699999999999988 Q 5.3323044433593765 0.11699999999999988 5.278304443359376 0.1612499999999999 Q 5.224304443359376 0.2054999999999999 5.224304443359376 0.2849999999999999 Q 5.224304443359376 0.34199999999999997 5.256554443359376 0.3779999999999999 Q 5.288804443359376 0.4139999999999999 5.336054443359376 0.43274999999999997 Q 5.383304443359376 0.4514999999999999 5.468804443359376 0.4754999999999999 Q 5.572304443359376 0.5039999999999999 5.635304443359376 0.53175 Q 5.698304443359376 0.5594999999999999 5.743304443359376 0.6172499999999999 Q 5.788304443359376 0.6749999999999999 5.788304443359376 0.7739999999999999 Q 5.788304443359376 0.8504999999999999 5.747804443359376 0.9179999999999999 Q 5.7073044433593765 0.9854999999999999 5.627804443359376 1.0274999999999999 Q 5.548304443359376 1.0695 5.440304443359376 1.0695 Q 5.336804443359376 1.0695 5.255054443359376 1.0327499999999998 Z" fill="#102036" fill-rule="nonzero"></path></g><g><path d=" M 1.532118863192472 2.1598909090909086 Q 1.5253006813742902 2.1598909090909086 1.520868863192472 2.1554590909090905 Q 1.5164370450106537 2.1510272727272723 1.5164370450106537 2.1442090909090905 L 1.5164370450106537 1.6914818181818179 Q 1.5164370450106537 1.684663636363636 1.520868863192472 1.6802318181818179 Q 1.5253006813742902 1.6757999999999997 1.532118863192472 1.6757999999999997 L 1.5634824995561083 1.6757999999999997 Q 1.5703006813742901 1.6757999999999997 1.5747324995561083 1.6802318181818179 Q 1.5791643177379264 1.684663636363636 1.5791643177379264 1.6914818181818179 L 1.5791643177379264 1.721481818181818 Q 1.5955279541015628 1.698981818181818 1.6228006813742901 1.683981818181818 Q 1.6500734086470175 1.668981818181818 1.6909824995561082 1.668981818181818 Q 1.7291643177379266 1.668981818181818 1.7560961359197447 1.6819363636363633 Q 1.7830279541015628 1.6948909090909088 1.8004143177379266 1.7173909090909087 Q 1.8178006813742902 1.7398909090909087 1.8266643177379265 1.7685272727272725 Q 1.8355279541015628 1.797163636363636 1.8368915904651992 1.8298909090909088 Q 1.8375734086470175 1.8407999999999998 1.8375734086470175 1.853072727272727 Q 1.8375734086470175 1.8653454545454542 1.8368915904651992 1.8762545454545452 Q 1.8355279541015628 1.9082999999999997 1.8266643177379265 1.9372772727272725 Q 1.8178006813742902 1.9662545454545453 1.8004143177379266 1.988413636363636 Q 1.7830279541015628 2.010572727272727 1.7560961359197447 2.0238681818181816 Q 1.7291643177379266 2.037163636363636 1.6909824995561082 2.037163636363636 Q 1.6514370450106537 2.037163636363636 1.6245052268288356 2.022504545454545 Q 1.5975734086470175 2.0078454545454543 1.5805279541015629 1.9860272727272723 L 1.5805279541015629 2.1442090909090905 Q 1.5805279541015629 2.1510272727272723 1.5764370450106537 2.1554590909090905 Q 1.5723461359197446 2.1598909090909086 1.565527954101563 2.1598909090909086 L 1.532118863192472 2.1598909090909086 Z M 1.6766643177379266 1.9819363636363634 Q 1.712118863192472 1.9819363636363634 1.7322324995561083 1.9665954545454543 Q 1.7523461359197448 1.9512545454545451 1.761209772283381 1.9263681818181815 Q 1.7700734086470173 1.9014818181818178 1.7714370450106538 1.8728454545454543 Q 1.772118863192472 1.853072727272727 1.7714370450106538 1.8332999999999997 Q 1.7700734086470173 1.8046636363636361 1.761209772283381 1.7797772727272725 Q 1.7523461359197448 1.7548909090909088 1.7322324995561083 1.7395499999999997 Q 1.712118863192472 1.7242090909090906 1.6766643177379266 1.7242090909090906 Q 1.6432552268288356 1.7242090909090906 1.6224597722833811 1.7398909090909087 Q 1.6016643177379266 1.755572727272727 1.5917779541015629 1.7797772727272725 Q 1.5818915904651991 1.803981818181818 1.5805279541015629 1.8292090909090906 Q 1.5798461359197447 1.8401181818181815 1.5798461359197447 1.8551181818181814 Q 1.5798461359197447 1.8701181818181816 1.5805279541015629 1.8817090909090906 Q 1.581209772283381 1.905572727272727 1.5917779541015629 1.9287545454545452 Q 1.6023461359197446 1.9519363636363634 1.6234824995561083 1.9669363636363633 Q 1.6446188631924719 1.9819363636363634 1.6766643177379266 1.9819363636363634 Z M 2.0611738170276994 2.037163636363636 Q 2.0175374533913355 2.037163636363636 1.9871965443004265 2.017731818181818 Q 1.9568556352095174 1.9982999999999997 1.9411738170276993 1.9635272727272723 Q 1.9254919988458812 1.9287545454545452 1.9254919988458812 1.8837545454545452 L 1.9254919988458812 1.6914818181818179 Q 1.9254919988458812 1.684663636363636 1.9299238170276993 1.6802318181818179 Q 1.9343556352095175 1.6757999999999997 1.9411738170276993 1.6757999999999997 L 1.9752647261186085 1.6757999999999997 Q 1.98208290793679 1.6757999999999997 1.9865147261186085 1.6802318181818179 Q 1.9909465443004266 1.684663636363636 1.9909465443004266 1.6914818181818179 L 1.9909465443004266 1.8803454545454543 Q 1.9909465443004266 1.9819363636363634 2.07958290793679 1.9819363636363634 Q 2.1218556352095175 1.9819363636363634 2.147423817027699 1.955004545454545 Q 2.1729919988458812 1.928072727272727 2.1729919988458812 1.8803454545454543 L 2.1729919988458812 1.6914818181818179 Q 2.1729919988458812 1.684663636363636 2.1774238170276994 1.6802318181818179 Q 2.1818556352095175 1.6757999999999997 2.1886738170276994 1.6757999999999997 L 2.2227647261186085 1.6757999999999997 Q 2.2295829079367904 1.6757999999999997 2.2336738170276993 1.6802318181818179 Q 2.237764726118608 1.684663636363636 2.237764726118608 1.6914818181818179 L 2.237764726118608 2.014663636363636 Q 2.237764726118608 2.021481818181818 2.2336738170276993 2.025913636363636 Q 2.2295829079367904 2.0303454545454542 2.2227647261186085 2.0303454545454542 L 2.190719271573154 2.0303454545454542 Q 2.183901089754972 2.0303454545454542 2.179469271573154 2.025913636363636 Q 2.1750374533913357 2.021481818181818 2.1750374533913357 2.014663636363636 L 2.1750374533913357 1.984663636363636 Q 2.1566283624822447 2.0085272727272723 2.1303783624822445 2.0228454545454544 Q 2.104128362482245 2.037163636363636 2.0611738170276994 2.037163636363636 Z M 2.3584395530007103 1.8544363636363634 Q 2.3516213711825285 1.8544363636363634 2.3471895530007103 1.850004545454545 Q 2.342757734818892 1.845572727272727 2.342757734818892 1.838754545454545 L 2.342757734818892 1.8128454545454542 Q 2.342757734818892 1.8060272727272724 2.3471895530007103 1.8015954545454542 Q 2.3516213711825285 1.797163636363636 2.3584395530007103 1.797163636363636 L 2.562985007546165 1.797163636363636 Q 2.570485007546165 1.797163636363636 2.574575916637074 1.8015954545454542 Q 2.578666825727983 1.8060272727272724 2.578666825727983 1.8128454545454542 L 2.578666825727983 1.838754545454545 Q 2.578666825727983 1.845572727272727 2.574575916637074 1.850004545454545 Q 2.570485007546165 1.8544363636363634 2.562985007546165 1.8544363636363634 L 2.3584395530007103 1.8544363636363634 Z M 2.766803034002131 2.0303454545454542 Q 2.7579393976384945 2.0303454545454542 2.753166670365767 2.025913636363636 Q 2.7483939430930397 2.021481818181818 2.744984852183949 2.0132999999999996 L 2.648166670365767 1.6969363636363632 Q 2.6468030340021307 1.6935272727272723 2.6468030340021307 1.6901181818181814 Q 2.6468030340021307 1.683981818181818 2.651234852183949 1.6798909090909089 Q 2.655666670365767 1.6757999999999997 2.661121215820313 1.6757999999999997 L 2.6911212158203126 1.6757999999999997 Q 2.6986212158203124 1.6757999999999997 2.702712124911222 1.6798909090909089 Q 2.7068030340021307 1.683981818181818 2.708166670365767 1.687390909090909 L 2.7838484885475854 1.9444363636363633 L 2.864984852183949 1.6901181818181814 Q 2.8663484885475854 1.6853454545454543 2.8707803067294035 1.680572727272727 Q 2.8752121249112217 1.6757999999999997 2.884075761274858 1.6757999999999997 L 2.9072575794566764 1.6757999999999997 Q 2.9161212158203127 1.6757999999999997 2.9208939430930396 1.680572727272727 Q 2.925666670365767 1.6853454545454543 2.9263484885475854 1.6901181818181814 L 3.007484852183949 1.9444363636363633 L 3.083166670365767 1.687390909090909 Q 3.083848488547585 1.683981818181818 3.0879393976384946 1.6798909090909089 Q 3.0920303067294035 1.6757999999999997 3.0995303067294033 1.6757999999999997 L 3.1302121249112216 1.6757999999999997 Q 3.135666670365767 1.6757999999999997 3.1397575794566763 1.6798909090909089 Q 3.1438484885475853 1.683981818181818 3.1438484885475853 1.6901181818181814 Q 3.1438484885475853 1.6935272727272723 3.142484852183949 1.6969363636363632 L 3.0463484885475856 2.0132999999999996 Q 3.0436212158203126 2.021481818181818 3.0388484885475853 2.025913636363636 Q 3.034075761274858 2.0303454545454542 3.023848488547585 2.0303454545454542 L 2.9972575794566763 2.0303454545454542 Q 2.98839394309304 2.0303454545454542 2.9825984885475854 2.025913636363636 Q 2.9768030340021308 2.021481818181818 2.9747575794566763 2.0132999999999996 L 2.895666670365767 1.7692090909090905 L 2.816575761274858 2.0132999999999996 Q 2.813848488547585 2.021481818181818 2.80839394309304 2.025913636363636 Q 2.8029393976384944 2.0303454545454542 2.7933939430930397 2.0303454545454542 L 2.766803034002131 2.0303454545454542 Z M 3.3619640558416193 2.037163636363636 Q 3.3101458740234375 2.037163636363636 3.27537314675071 2.0173909090909086 Q 3.2406004194779827 1.9976181818181815 3.2221913285688917 1.9625045454545451 Q 3.203782237659801 1.9273909090909087 3.2017367831143466 1.8823909090909088 Q 3.201054964932528 1.8707999999999996 3.201054964932528 1.8527318181818178 Q 3.201054964932528 1.834663636363636 3.2017367831143466 1.8237545454545452 Q 3.203782237659801 1.778072727272727 3.222532237659801 1.7432999999999996 Q 3.241282237659801 1.7085272727272725 3.2760549649325283 1.6887545454545452 Q 3.3108276922052555 1.668981818181818 3.3619640558416193 1.668981818181818 Q 3.4131004194779826 1.668981818181818 3.44787314675071 1.6887545454545452 Q 3.4826458740234374 1.7085272727272725 3.501395874023437 1.7432999999999996 Q 3.5201458740234375 1.778072727272727 3.522191328568892 1.8237545454545452 Q 3.52287314675071 1.834663636363636 3.52287314675071 1.8527318181818178 Q 3.52287314675071 1.8707999999999996 3.522191328568892 1.8823909090909088 Q 3.5201458740234375 1.9273909090909087 3.5017367831143464 1.9625045454545451 Q 3.4833276922052554 1.9976181818181815 3.448554964932528 2.0173909090909086 Q 3.413782237659801 2.037163636363636 3.3619640558416193 2.037163636363636 Z M 3.3619640558416193 1.984663636363636 Q 3.4042367831143463 1.984663636363636 3.429464055841619 1.957731818181818 Q 3.454691328568892 1.9307999999999996 3.4567367831143465 1.8789818181818179 Q 3.4574186012961645 1.8687545454545451 3.4574186012961645 1.853072727272727 Q 3.4574186012961645 1.8373909090909089 3.4567367831143465 1.827163636363636 Q 3.454691328568892 1.7753454545454543 3.429464055841619 1.748413636363636 Q 3.4042367831143463 1.721481818181818 3.3619640558416193 1.721481818181818 Q 3.319691328568892 1.721481818181818 3.29412314675071 1.748413636363636 Q 3.268554964932528 1.7753454545454543 3.267191328568892 1.827163636363636 Q 3.2665095103870736 1.8373909090909089 3.2665095103870736 1.853072727272727 Q 3.2665095103870736 1.8687545454545451 3.267191328568892 1.8789818181818179 Q 3.268554964932528 1.9307999999999996 3.29412314675071 1.957731818181818 Q 3.319691328568892 1.984663636363636 3.3619640558416193 1.984663636363636 Z M 3.63058310768821 2.0303454545454542 Q 3.623764925870028 2.0303454545454542 3.61933310768821 2.025913636363636 Q 3.614901289506392 2.021481818181818 3.614901289506392 2.014663636363636 L 3.614901289506392 1.692163636363636 Q 3.614901289506392 1.6853454545454543 3.61933310768821 1.680572727272727 Q 3.623764925870028 1.6757999999999997 3.63058310768821 1.6757999999999997 L 3.6619467440518467 1.6757999999999997 Q 3.6687649258700286 1.6757999999999997 3.6735376531427555 1.680572727272727 Q 3.678310380415483 1.6853454545454543 3.678310380415483 1.692163636363636 L 3.678310380415483 1.7221636363636361 Q 3.6919467440518465 1.698981818181818 3.715810380415483 1.687390909090909 Q 3.7396740167791194 1.6757999999999997 3.7737649258700285 1.6757999999999997 L 3.8003558349609374 1.6757999999999997 Q 3.8071740167791193 1.6757999999999997 3.8116058349609374 1.6802318181818179 Q 3.8160376531427556 1.684663636363636 3.8160376531427556 1.6914818181818179 L 3.8160376531427556 1.7194363636363634 Q 3.8160376531427556 1.726254545454545 3.8116058349609374 1.7303454545454542 Q 3.8071740167791193 1.7344363636363633 3.8003558349609374 1.7344363636363633 L 3.7594467440518464 1.7344363636363633 Q 3.722628562233665 1.7344363636363633 3.7014921985973013 1.755913636363636 Q 3.6803558349609373 1.7773909090909088 3.6803558349609373 1.8142090909090907 L 3.6803558349609373 2.014663636363636 Q 3.6803558349609373 2.021481818181818 3.6755831076882104 2.025913636363636 Q 3.670810380415483 2.0303454545454542 3.663992198597301 2.0303454545454542 L 3.63058310768821 2.0303454545454542 Z M 3.897135731090199 2.0303454545454542 Q 3.8903175492720172 2.0303454545454542 3.885885731090199 2.025913636363636 Q 3.881453912908381 2.021481818181818 3.881453912908381 2.014663636363636 L 3.881453912908381 1.5619363636363635 Q 3.881453912908381 1.5551181818181816 3.885885731090199 1.5506863636363635 Q 3.8903175492720172 1.546254545454545 3.897135731090199 1.546254545454545 L 3.9291811856356533 1.546254545454545 Q 3.9366811856356536 1.546254545454545 3.9407720947265625 1.5506863636363635 Q 3.944863003817472 1.5551181818181816 3.944863003817472 1.5619363636363635 L 3.944863003817472 2.014663636363636 Q 3.944863003817472 2.021481818181818 3.9407720947265625 2.025913636363636 Q 3.9366811856356536 2.0303454545454542 3.9291811856356533 2.0303454545454542 L 3.897135731090199 2.0303454545454542 Z M 4.182804565429687 2.037163636363636 Q 4.145304565429687 2.037163636363636 4.11803183815696 2.0238681818181816 Q 4.090759110884233 2.010572727272727 4.073372747247869 1.9877318181818178 Q 4.055986383611505 1.9648909090909088 4.0474636563387785 1.935572727272727 Q 4.038940929066051 1.9062545454545452 4.037577292702415 1.8735272727272725 Q 4.0368954745205965 1.8626181818181815 4.0368954745205965 1.853072727272727 Q 4.0368954745205965 1.8435272727272725 4.037577292702415 1.8326181818181815 Q 4.038940929066051 1.800572727272727 4.0474636563387785 1.7712545454545452 Q 4.055986383611505 1.7419363636363634 4.073372747247869 1.7187545454545452 Q 4.090759110884233 1.695572727272727 4.11803183815696 1.6822772727272723 Q 4.145304565429687 1.668981818181818 4.182804565429687 1.668981818181818 Q 4.22303183815696 1.668981818181818 4.249622747247869 1.6832999999999998 Q 4.276213656338778 1.6976181818181815 4.293259110884232 1.7187545454545452 L 4.293259110884232 1.5619363636363635 Q 4.293259110884232 1.5551181818181816 4.297690929066051 1.5506863636363635 Q 4.30212274724787 1.546254545454545 4.3089409290660505 1.546254545454545 L 4.341668201793324 1.546254545454545 Q 4.3484863836115055 1.546254545454545 4.352918201793324 1.5506863636363635 Q 4.357350019975142 1.5551181818181816 4.357350019975142 1.5619363636363635 L 4.357350019975142 2.014663636363636 Q 4.357350019975142 2.021481818181818 4.352918201793324 2.025913636363636 Q 4.3484863836115055 2.0303454545454542 4.341668201793324 2.0303454545454542 L 4.310986383611506 2.0303454545454542 Q 4.303486383611506 2.0303454545454542 4.299395474520597 2.025913636363636 Q 4.295304565429687 2.021481818181818 4.295304565429687 2.014663636363636 L 4.295304565429687 1.9860272727272723 Q 4.278259110884233 2.0078454545454543 4.250986383611505 2.022504545454545 Q 4.223713656338778 2.037163636363636 4.182804565429687 2.037163636363636 Z M 4.197122747247869 1.9819363636363634 Q 4.231213656338778 1.9819363636363634 4.251668201793324 1.9662545454545453 Q 4.272122747247869 1.950572727272727 4.282350019975142 1.9263681818181815 Q 4.292577292702415 1.902163636363636 4.293259110884232 1.8769363636363634 Q 4.293940929066051 1.8660272727272724 4.293940929066051 1.8506863636363633 Q 4.293940929066051 1.8353454545454542 4.293259110884232 1.8244363636363634 Q 4.292577292702415 1.800572727272727 4.282009110884233 1.7773909090909088 Q 4.271440929066051 1.7542090909090906 4.250645474520597 1.7392090909090907 Q 4.229850019975141 1.7242090909090906 4.197122747247869 1.7242090909090906 Q 4.1623500199751415 1.7242090909090906 4.141895474520596 1.7395499999999997 Q 4.1214409290660505 1.7548909090909088 4.112577292702414 1.7797772727272725 Q 4.103713656338778 1.8046636363636361 4.102350019975142 1.8332999999999997 Q 4.1016682017933235 1.853072727272727 4.102350019975142 1.8728454545454543 Q 4.103713656338778 1.9014818181818178 4.112577292702414 1.9263681818181815 Q 4.1214409290660505 1.9512545454545451 4.141895474520596 1.9665954545454543 Q 4.1623500199751415 1.9819363636363634 4.197122747247869 1.9819363636363634 Z" fill="#3682ae" fill-rule="nonzero"></path></g><g clip-path="url(&quot;#SvgjsClipPath1003&quot;)"><g clip-path="url(&quot;#SvgjsClipPath1000&quot;)"><path d=" M 0.8096293135497992 -4.108411866998714 L 1.5929047580445304 -3.6565793525273698 L 2.937255117713381 -4.4324233411919804 L 4.281605477382232 -3.6565793525273698 L 5.064137776293952 -4.108411866998714 L 2.937255117713381 -5.33683151571768 L 0.8096293135497992 -4.108411866998714 Z" fill="#a5b2ba" transform="matrix(1,0,0,1,0,0)" fill-rule="evenodd"></path></g><g clip-path="url(&quot;#SvgjsClipPath1000&quot;)"><path d=" M 5.164462430000581 -3.9345158005738874 L 4.381930131088862 -3.482683286102543 L 4.381930131088862 -1.930252163190311 L 3.037579771420012 -1.1544081745256998 L 3.037579771420012 -0.25 L 5.164462430000581 -1.4776765031359549 L 5.164462430000581 -3.9345158005738874 Z" fill="#102036" transform="matrix(1,0,0,1,0,0)" fill-rule="evenodd"></path></g><g clip-path="url(&quot;#SvgjsClipPath1000&quot;)"><path d=" M 2.8361873184237387 -0.25 L 2.8361873184237387 -1.1544081745256998 L 1.4910938131718754 -1.930252163190311 L 1.4910938131718754 -3.482683286102543 L 0.7093046598431685 -3.9345158005738874 L 0.7093046598431685 -1.4776765031359549 L 2.8361873184237387 -0.25 Z" fill="#3682ae" transform="matrix(1,0,0,1,0,0)" fill-rule="evenodd"></path></g></g></g><defs><clipPath id="SvgjsClipPath1003"><path d=" M 0.7093046598431685 -5.33683151571768 h 4.455157770157413 v 5.08683151571768 h -4.455157770157413 Z"></path></clipPath><clipPath id="SvgjsClipPath1000"><path d=" M 0.7093046598431685 -5.33683151571768 L 5.164462430000581 -5.33683151571768 L 5.164462430000581 -0.25 L 0.7093046598431685 -0.25 Z"></path></clipPath></defs></svg>